<?xml version="1.0" encoding="UTF-8" standalone="no"?>
<svg width="27px" height="29px" viewBox="0 0 27 29" version="1.1" xmlns="http://www.w3.org/2000/svg" xmlns:xlink="http://www.w3.org/1999/xlink">
    <!-- Generator: Sketch 3.8.3 (29802) - http://www.bohemiancoding.com/sketch -->
    <title>bp</title>
    <desc>Created with Sketch.</desc>
    <defs></defs>
    <g id="Page-1" stroke="none" stroke-width="1" fill="none" fill-rule="evenodd">
        <g id="Step-Sequencer-Copy" transform="translate(-53.000000, -159.000000)" fill="#B0B0B0">
            <g id="Filter-Buttons" transform="translate(25.000000, 32.000000)">
                <g id="Bandpas-Button" transform="translate(0.000000, 107.951923)">
                    <g id="Icon" transform="translate(28.000000, 19.000000)">
                        <path d="M13.7479187,4.24344211 C9.81745823,4.28259412 7.17557673,8.06335636 5.74493802,14.7913775 C5.26103338,17.0670888 4.9571456,19.5185994 4.80172885,22.008149 C4.6972877,23.6811439 4.67226716,25.1331027 4.69133964,26.2311055 C4.69321693,26.3391807 4.69501666,26.410412 4.69605948,26.442305 C4.73215691,27.5462845 3.86646743,28.4704994 2.76248793,28.5065969 C1.65850842,28.5426943 0.734293453,27.6770048 0.698196028,26.5730253 C0.696495621,26.5210212 0.69418051,26.4293917 0.691942953,26.3005756 C0.671127637,25.1022383 0.697948046,23.5458323 0.809500567,21.7589236 C0.97631578,19.0867872 1.30366059,16.4460449 1.83241311,13.9594226 C3.59935868,5.6498145 7.27446672,0.360544095 13.5974911,0.245065099 C13.6268855,0.243782794 13.6564445,0.243134964 13.6861548,0.243134963 C13.7067704,0.243134963 13.7273584,0.243189198 13.7479186,0.243297597 C13.7684803,0.243189195 13.7890676,0.243134963 13.8096825,0.243134963 C13.8393929,0.243134964 13.8689519,0.243782794 13.8983463,0.245065099 C20.2213706,0.360544096 23.8964787,5.6498145 25.6634242,13.9594226 C26.1921768,16.4460449 26.5195216,19.0867872 26.6863368,21.7589236 C26.7978893,23.5458323 26.8247097,25.1022383 26.8038944,26.3005756 C26.8016568,26.4293917 26.7993417,26.5210212 26.7976413,26.5730253 C26.7615439,27.6770048 25.8373289,28.5426943 24.7333494,28.5065969 C23.6293699,28.4704994 22.7636804,27.5462845 22.7997779,26.442305 C22.8008207,26.410412 22.8026204,26.3391807 22.8044977,26.2311055 C22.8235702,25.1331027 22.7985496,23.6811439 22.6941085,22.008149 C22.5386917,19.5185994 22.234804,17.0670888 21.7508993,14.7913775 C20.3202606,8.06335636 17.6783791,4.28259412 13.7479187,4.24344211 L13.7479187,4.24344211 Z" id="bp"></path>
                    </g>
                </g>
            </g>
        </g>
    </g>
</svg>