<?xml version="1.0" encoding="UTF-8" standalone="no"?>
<svg width="32px" height="22px" viewBox="0 0 32 22" version="1.1" xmlns="http://www.w3.org/2000/svg" xmlns:xlink="http://www.w3.org/1999/xlink">
    <!-- Generator: Sketch 3.8.3 (29802) - http://www.bohemiancoding.com/sketch -->
    <title>hp</title>
    <desc>Created with Sketch.</desc>
    <defs></defs>
    <g id="Page-1" stroke="none" stroke-width="1" fill="none" fill-rule="evenodd">
        <g id="Step-Sequencer-Copy" transform="translate(-50.000000, -270.000000)" fill="#B0B0B0">
            <g id="Filter-Buttons" transform="translate(25.000000, 32.000000)">
                <g id="Highpass-Button" transform="translate(0.000000, 215.903846)">
                    <path d="M54.5891056,23.0209709 L42.2833754,23.0209709 L42.5921142,23.0449445 C42.5270808,23.0347835 42.4450992,23.0249982 42.3467901,23.0170273 C40.8965507,22.8994412 38.9866225,23.2822624 36.8263896,24.5160024 C33.698866,26.3021758 30.6838007,29.56229 27.9345157,34.5876951 C26.9605647,36.3679754 26.0290445,38.3560527 25.1438888,40.5616962 C24.7325011,41.5867981 25.2300146,42.751303 26.2551165,43.1626908 C27.2802184,43.5740786 28.4447234,43.076565 28.8561112,42.0514631 C29.6835639,39.9896047 30.5478728,38.1449716 31.4437013,36.5074909 C33.8554577,32.0990528 36.3643307,29.3862717 38.8101224,27.9894451 C40.2433291,27.1709202 41.3491768,26.9492668 42.023529,27.0039436 C42.0222111,27.0038368 42.0061149,27.0019155 41.9746365,26.9969973 L42.1280752,27.0209709 L42.2833754,27.0209709 L54.5891056,27.0209709 C55.6936751,27.0209709 56.5891056,26.1255404 56.5891056,25.0209709 C56.5891056,23.9164014 55.6936751,23.0209709 54.5891056,23.0209709 L54.5891056,23.0209709 Z" id="hp"></path>
                </g>
            </g>
        </g>
    </g>
</svg>