<?xml version="1.0" encoding="UTF-8" standalone="no"?>
<svg width="33px" height="21px" viewBox="0 0 33 21" version="1.1" xmlns="http://www.w3.org/2000/svg" xmlns:xlink="http://www.w3.org/1999/xlink">
    <!-- Generator: Sketch 3.8.3 (29802) - http://www.bohemiancoding.com/sketch -->
    <title>Path 1</title>
    <desc>Created with Sketch.</desc>
    <defs></defs>
    <g id="Page-1" stroke="none" stroke-width="1" fill="none" fill-rule="evenodd">
        <g id="Step-Sequencer-Copy" transform="translate(-50.000000, -55.000000)" fill="#B0B0B0">
            <g id="Filter-Buttons" transform="translate(25.000000, 32.000000)">
                <g id="Lowpass-Button">
                    <path d="M27.8628323,27.1096324 L40.1685625,27.1096324 L40.3238627,27.1096324 L40.4773014,27.0856588 C40.445823,27.0905771 40.4297268,27.0924983 40.4284089,27.0926052 C41.1027611,27.0379284 42.2086088,27.2595818 43.6418156,28.0781067 C46.0876072,29.4749332 48.5964802,32.1877144 51.0082366,36.5961524 C51.9040651,38.2336332 52.768374,40.0782662 53.5958268,42.1401247 C54.0072145,43.1652266 55.1717195,43.6627402 56.1968214,43.2513524 C57.2219233,42.8399646 57.7194368,41.6754596 57.3080491,40.6503577 C56.4228934,38.4447143 55.4913732,36.4566369 54.5174223,34.6763567 C51.7681372,29.6509515 48.7530719,26.3908374 45.6255484,24.604664 C43.4653154,23.370924 41.5553872,22.9881027 40.1051478,23.1056888 C40.0068388,23.1136597 39.9248571,23.1234451 39.8598237,23.133606 L40.1685625,23.1096324 L27.8628323,23.1096324 C26.7582628,23.1096324 25.8628323,24.0050629 25.8628323,25.1096324 C25.8628323,26.2142019 26.7582628,27.1096324 27.8628323,27.1096324 L27.8628323,27.1096324 Z" id="Path-1"></path>
                </g>
            </g>
        </g>
    </g>
</svg>