<?xml version="1.0" encoding="UTF-8" standalone="no"?>
<svg width="44px" height="28px" viewBox="0 0 44 28" version="1.1" xmlns="http://www.w3.org/2000/svg" xmlns:xlink="http://www.w3.org/1999/xlink">
    <!-- Generator: Sketch 3.8.2 (29753) - http://www.bohemiancoding.com/sketch -->
    <title>Shape</title>
    <desc>Created with Sketch.</desc>
    <defs></defs>
    <g id="Page-1" stroke="none" stroke-width="1" fill="none" fill-rule="evenodd">
        <path d="M17.79,27.2 C17.2164073,27.2011479 16.6923801,26.8750865 16.44,26.36 L8.72,10.55 L5.9,14.72 C5.62158573,15.1319021 5.15716898,15.3790916 4.66,15.38 L1.66,15.38 C0.831572875,15.38 0.16,14.7084271 0.16,13.88 C0.16,13.0515729 0.831572875,12.38 1.66,12.38 L3.82,12.38 L7.64,6.73 C7.93965665,6.28649818 8.4529307,6.03627353 8.98688847,6.07338257 C9.52084624,6.1104916 9.99457283,6.42931089 10.23,6.91 L17.54,21.91 L25.02,1.59 C25.2273737,1.01936221 25.7582917,0.630012262 26.364873,0.603734374 C26.9714542,0.577456486 27.5340543,0.919433804 27.79,1.47 L35.17,17.22 L38.3,12.84 C38.5810402,12.4452751 39.0354477,12.210622 39.52,12.21 L42.52,12.21 C43.3484271,12.21 44.02,12.8815729 44.02,13.71 C44.02,14.5384271 43.3484271,15.21 42.52,15.21 L40.31,15.21 L36.17,21 C35.8596408,21.4338493 35.3422234,21.6702335 34.811086,21.6208254 C34.2799486,21.5714173 33.8150104,21.2436511 33.59,20.76 L26.65,6 L19.2,26.22 C18.9991385,26.7912218 18.4745334,27.1856618 17.87,27.22 L17.79,27.22 L17.79,27.2 Z" id="Shape" fill="#B0B0B0"></path>
    </g>
</svg>