<?xml version="1.0" encoding="UTF-8" standalone="no"?>
<svg width="43px" height="28px" viewBox="0 0 43 28" version="1.1" xmlns="http://www.w3.org/2000/svg" xmlns:xlink="http://www.w3.org/1999/xlink">
    <!-- Generator: Sketch 3.8.2 (29753) - http://www.bohemiancoding.com/sketch -->
    <title>Shape</title>
    <desc>Created with Sketch.</desc>
    <defs></defs>
    <g id="Page-1" stroke="none" stroke-width="1" fill="none" fill-rule="evenodd">
        <g id="Unbenannt-1" transform="translate(-282.000000, -1.000000)" fill="#B0B0B0">
            <path d="M303.16,28.07 C302.742512,28.0700506 302.343892,27.8961069 302.06,27.59 L287.66,11.94 L287.66,14.59 C287.66,15.4184271 286.988427,16.09 286.16,16.09 L283.66,16.09 C282.831573,16.09 282.16,15.4184271 282.16,14.59 C282.16,13.7615729 282.831573,13.09 283.66,13.09 L284.66,13.09 L284.66,8.09 C284.668043,7.47657425 285.048815,6.92987237 285.621402,6.70964643 C286.19399,6.48942049 286.842972,6.64006306 287.26,7.09 L301.66,22.74 L301.66,2.5 C301.659085,1.8771335 302.043195,1.31851058 302.625116,1.09640337 C303.207037,0.874296168 303.865671,1.03492517 304.28,1.5 L318.36,17.36 L318.36,14.59 C318.36,13.7615729 319.031573,13.09 319.86,13.09 L322.86,13.09 C323.688427,13.09 324.36,13.7615729 324.36,14.59 C324.36,15.4184271 323.688427,16.09 322.86,16.09 L321.38,16.09 L321.38,21.31 C321.380915,21.9328665 320.996805,22.4914894 320.414884,22.7135966 C319.832963,22.9357038 319.174329,22.7750748 318.76,22.31 L304.66,6.45 L304.66,26.57 C304.66,27.3984271 303.988427,28.07 303.16,28.07 L303.16,28.07 Z" id="Shape"></path>
        </g>
    </g>
</svg>