<?xml version="1.0" encoding="UTF-8" standalone="no"?>
<svg width="44px" height="28px" viewBox="0 0 44 28" version="1.1" xmlns="http://www.w3.org/2000/svg" xmlns:xlink="http://www.w3.org/1999/xlink">
    <!-- Generator: Sketch 3.8.2 (29753) - http://www.bohemiancoding.com/sketch -->
    <title>Shape</title>
    <desc>Created with Sketch.</desc>
    <defs></defs>
    <g id="Page-1" stroke="none" stroke-width="1" fill="none" fill-rule="evenodd">
        <path d="M17.58,27.54 C12.87,27.54 12.45,21.66 12.09,16.46 C11.84,12.93 11.53,8.54 9.86,8.54 C7.76,8.54 7.47,9.38 6.86,11.04 C6.25,12.7 5.36,15.36 1.48,15.36 C0.651572875,15.36 -0.02,14.6884271 -0.02,13.86 C-0.02,13.0315729 0.651572875,12.36 1.48,12.36 C3.23,12.36 3.48,11.69 4.03,10.06 C4.66,8.26 5.6,5.54 9.84,5.54 C14.31,5.54 14.71,11.23 15.06,16.25 C15.33,20.13 15.64,24.54 17.56,24.54 C19.48,24.54 20.33,17.88 20.85,13.47 C21.65,6.71 22.4,0.32 26.76,0.32 C31.12,0.32 31.71,6 32.15,11 C32.47,14.58 32.86,19 34.61,19 C36.93,19 37.42,18 38.16,15.95 C38.72,14.43 39.57,12.13 42.34,12.13 C43.1684271,12.13 43.84,12.8015729 43.84,13.63 C43.84,14.4584271 43.1684271,15.13 42.34,15.13 C41.79,15.13 41.6,15.3 40.98,16.99 C40.24,18.99 39.13,21.99 34.61,21.99 C30.09,21.99 29.61,16.26 29.16,11.21 C28.84,7.66 28.45,3.21 26.76,3.21 C25.07,3.21 24.3,9.79 23.84,13.71 C23,20.88 22.24,27.54 17.58,27.54 L17.58,27.54 Z" id="Shape" fill="#B0B0B0"></path>
    </g>
</svg>