<?xml version="1.0" encoding="UTF-8" standalone="no"?>
<svg width="45px" height="28px" viewBox="0 0 45 28" version="1.1" xmlns="http://www.w3.org/2000/svg" xmlns:xlink="http://www.w3.org/1999/xlink">
    <!-- Generator: Sketch 3.8.2 (29753) - http://www.bohemiancoding.com/sketch -->
    <title>Shape</title>
    <desc>Created with Sketch.</desc>
    <defs></defs>
    <g id="Page-1" stroke="none" stroke-width="1" fill="none" fill-rule="evenodd">
        <path d="M21.77,27.75 L13.36,27.75 C12.5315729,27.75 11.86,27.0784271 11.86,26.25 L11.86,8.76 L6.69,8.76 L6.69,13.76 C6.69,14.5884271 6.01842712,15.26 5.19,15.26 L1.67,15.26 C0.841572875,15.26 0.17,14.5884271 0.17,13.76 C0.17,12.9315729 0.841572875,12.26 1.67,12.26 L3.67,12.26 L3.67,7.26 C3.67,6.43157288 4.34157288,5.76 5.17,5.76 L13.34,5.76 C14.1684271,5.76 14.84,6.43157288 14.84,7.26 L14.84,24.75 L20.26,24.75 L20.36,1.6 C20.3654969,0.77548078 21.0354625,0.109981677 21.86,0.11 L30.51,0.11 C30.9078275,0.112643342 31.28831,0.273219337 31.5677411,0.556401198 C31.8471722,0.839583059 32.002661,1.22217261 32,1.62 L31.92,19.09 L37.3,19.09 L37.3,14 C37.3,13.1715729 37.9715729,12.5 38.8,12.5 L42.66,12.5 C43.4884271,12.5 44.16,13.1715729 44.16,14 C44.16,14.8284271 43.4884271,15.5 42.66,15.5 L40.3,15.5 L40.3,20.57 C40.3,21.3984271 39.6284271,22.07 38.8,22.07 L30.42,22.07 C30.0204366,22.0700089 29.6373824,21.9106016 29.3557886,21.6271306 C29.0741948,21.3436595 28.9173362,20.9595545 28.92,20.56 L29,3.11 L23.35,3.11 L23.27,26.26 C23.2645031,27.0845192 22.5945375,27.7500183 21.77,27.75 L21.77,27.75 Z" id="Shape" fill="#B0B0B0"></path>
    </g>
</svg>