<?xml version="1.0" encoding="UTF-8" standalone="no"?>
<svg width="43px" height="28px" viewBox="0 0 43 28" version="1.1" xmlns="http://www.w3.org/2000/svg" xmlns:xlink="http://www.w3.org/1999/xlink">
    <!-- Generator: Sketch 3.8.2 (29753) - http://www.bohemiancoding.com/sketch -->
    <title>Page 1</title>
    <desc>Created with Sketch.</desc>
    <defs></defs>
    <g id="Page-1" stroke="none" stroke-width="1" fill="none" fill-rule="evenodd">
        <g id="Desktop-HD-Copy-4" transform="translate(-674.000000, -908.000000)" fill="#B0B0B0">
            <path d="M676,923.5877 L678.5,923.5877 C679.328427,923.5877 680,922.916127 680,922.0877 L680,915.5877 L677.396001,916.603174 L694.396001,935.085174 C695.321274,936.091108 697,935.436461 697,934.0697 L697,909.9997 L694.378416,910.995716 L711.083416,929.806716 C711.999501,930.838293 713.705,930.190324 713.705,928.8107 L713.705,922.0877 L712.205,923.5877 L715.181,923.5877 C716.009427,923.5877 716.681,922.916127 716.681,922.0877 C716.681,921.259273 716.009427,920.5877 715.181,920.5877 L712.205,920.5877 C711.376573,920.5877 710.705,921.259273 710.705,922.0877 L710.705,928.8107 L713.326584,927.814684 L696.621584,909.003684 C695.705499,907.972107 694,908.620076 694,909.9997 L694,934.0697 L696.603999,933.054226 L679.603999,914.572226 C678.678726,913.566292 677,914.220939 677,915.5877 L677,922.0877 L678.5,920.5877 L676,920.5877 C675.171573,920.5877 674.5,921.259273 674.5,922.0877 C674.5,922.916127 675.171573,923.5877 676,923.5877 L676,923.5877 Z" id="Page-1"></path>
        </g>
    </g>
</svg>